<svg t="1715911684676" class="icon" viewBox="0 0 1024 1024" version="1.1" stroke-width="2"
    xmlns="http://www.w3.org/2000/svg" p-id="3723" data-darkreader-inline-fill="" width="24" height="24">
    <path d="M768 128a128 128 0 0 1 128 128v512a128 128 0 0 1-128 128H256a128 128 0 0 1-128-128V256a128 128 0 0 1 128-128h512z m0 64H256a64 64 0 0 0-63.701333 57.856L192 256v512a64 64 0 0 0 57.856 63.701333L256 832h512a64 64 0 0 0 63.701333-57.856L832 768V256a64 64 0 0 0-57.856-63.701333L768 192z" fill="#878787" p-id="3724" data-darkreader-inline-fill="" style="--darkreader-inline-fill: #3c4144;"></path>
    <path d="M330.666667 394.666667m-53.333334 0a53.333333 53.333333 0 1 0 106.666667 0 53.333333 53.333333 0 1 0-106.666667 0Z" fill="#878787" p-id="3725" data-darkreader-inline-fill="" style="--darkreader-inline-fill: #c0bab2;"></path>
    <path d="M426.666667 362.666667m32 0l256 0q32 0 32 32l0 0q0 32-32 32l-256 0q-32 0-32-32l0 0q0-32 32-32Z" fill="#878787" p-id="3726" data-darkreader-inline-fill="" style="--darkreader-inline-fill: #3c4144;"></path>
    <path d="M330.666667 629.333333m-53.333334 0a53.333333 53.333333 0 1 0 106.666667 0 53.333333 53.333333 0 1 0-106.666667 0Z" fill="#878787" p-id="3727" data-darkreader-inline-fill="" style="--darkreader-inline-fill: #c0bab2;"></path>
    <path d="M426.666667 597.333333m32 0l256 0q32 0 32 32l0 0q0 32-32 32l-256 0q-32 0-32-32l0 0q0-32 32-32Z" fill="#878787" p-id="3728" data-darkreader-inline-fill="" style="--darkreader-inline-fill: #3c4144;"></path>
</svg>